<svg xmlns="http://www.w3.org/2000/svg" viewBox="0 0 233.31 233.31"><defs><style>.cls-1{fill:#fff;stroke:#1d1d1b;stroke-width:2px;}.cls-1,.cls-2{stroke-miterlimit:10;}.cls-2{fill:#681e26;stroke:#681e26;stroke-width:4px;}</style></defs><g id="Capa_2" data-name="Capa 2"><g id="Capa_1-2" data-name="Capa 1"><circle class="cls-1" cx="116.66" cy="116.66" r="115.66"/><path class="cls-2" d="M82.87,167.2a54.53,54.53,0,0,1-.25,6.4c-1.23,11.88-10.89,15.63-23.4,12.74-6.37-1.44-12-4.36-17.57-8V165.8c4.62,4.12,9,7.57,15.12,8.79,10.54,2,10.81-5.57,10.8-12.39v-119q7.64-1.5,15.3-2.6Z"/><path class="cls-2" d="M165.22,188.59C153.15,157.72,141,123.8,128.74,89.92c-2.48-7.16-4.71-14.31-6.69-21.68a198.53,198.53,0,0,1,1.49,24.21v99q-6.71,0-13.4-.35V37.91q6.69-.33,13.4-.36C136,72.33,148.47,108,160.81,141.27c2.21,5.72,3.92,11.62,5.87,17.21a112.68,112.68,0,0,1-1.46-18.08V40.46q6.6,1,13.15,2.25v143.7Q171.83,187.66,165.22,188.59Z"/></g></g></svg>